<svg width="29" height="24" viewBox="0 0 29 24" fill="none" xmlns="http://www.w3.org/2000/svg">
<path d="M25.0298 2.47059C25.6926 2.47053 26.3303 2.73035 26.8113 3.19655C27.2924 3.66274 27.5802 4.29979 27.6156 4.97647L27.619 5.11765V10.6278C26.1015 9.23604 24.1339 8.46764 22.0952 8.47059C17.5195 8.47059 13.8095 12.2633 13.8095 16.9412C13.8095 18.4842 14.2135 19.9313 14.9184 21.1772L2.58929 21.1765C1.92643 21.1765 1.2888 20.9167 0.807729 20.4505C0.326662 19.9843 0.0388047 19.3473 0.00345247 18.6706L1.04769e-08 18.5294V7.05812L9.53133 7.05882L9.68738 7.05388C10.3609 7.01226 10.9919 6.70353 11.446 6.19341L11.5475 6.072L14.3847 2.47059H25.0298ZM22.0952 9.88235C25.9087 9.88235 29 13.0426 29 16.9412C29 20.8398 25.9087 24 22.0952 24C18.2817 24 15.1905 20.8398 15.1905 16.9412C15.1905 13.0426 18.2817 9.88235 22.0952 9.88235ZM22.0952 12.7059C21.9261 12.7059 21.7629 12.7694 21.6365 12.8843C21.5101 12.9992 21.4294 13.1575 21.4096 13.3292L21.4048 13.4118V16.2353H18.6429C18.4737 16.2353 18.3105 16.2988 18.1841 16.4137C18.0577 16.5286 17.977 16.6869 17.9572 16.8586L17.9524 16.9412C17.9524 17.1141 18.0145 17.2809 18.1269 17.4101C18.2393 17.5393 18.3941 17.6219 18.5621 17.6421L18.6429 17.6471H21.4048V20.4706C21.4048 20.6435 21.4669 20.8104 21.5793 20.9396C21.6916 21.0688 21.8465 21.1513 22.0145 21.1715L22.0952 21.1765C22.2644 21.1764 22.4276 21.113 22.554 20.9981C22.6804 20.8832 22.7611 20.7249 22.7809 20.5532L22.7857 20.4706V17.6471H25.5476C25.7167 17.647 25.88 17.5836 26.0064 17.4687C26.1327 17.3538 26.2135 17.1955 26.2333 17.0238L26.2381 16.9412C26.2381 16.7683 26.176 16.6014 26.0636 16.4722C25.9512 16.343 25.7964 16.2605 25.6284 16.2402L25.5476 16.2353H22.7857V13.4118C22.7857 13.2389 22.7236 13.072 22.6112 12.9428C22.4988 12.8136 22.344 12.7311 22.176 12.7108L22.0952 12.7059ZM9.01762 0C9.59279 0 10.15 0.19553 10.6023 0.553412L10.7231 0.655059L12.4106 2.16424L10.2032 4.96518L10.1383 5.03929C10.0002 5.17835 9.82064 5.26659 9.628 5.28847L9.53133 5.29412L1.04769e-08 5.29341V2.64706C-5.95812e-05 1.96941 0.254097 1.31755 0.710114 0.825751C1.16613 0.333951 1.78928 0.0396705 2.45119 0.00352949L2.58929 0H9.01762Z" fill="#E0F880"/>
</svg>
