<svg width="60" height="34" viewBox="0 0 60 34" fill="none" xmlns="http://www.w3.org/2000/svg">
<path d="M21.0871 32.0541C20.8795 32.0541 20.6786 32.0208 20.4978 31.9541L20.7924 34H22.5536L21.5156 32.0074C21.375 32.0408 21.2344 32.0541 21.0871 32.0541ZM49.279 12.6484C48.4353 12.6484 47.6183 12.7483 46.8348 12.9283C45.4018 10.3693 42.6629 8.64328 39.5156 8.64328C39.0536 8.64328 38.6049 8.68326 38.1629 8.7499C35.7924 3.59192 30.5692 0.0133289 24.5089 0.0133289C16.9888 0.0133289 10.7612 5.51784 9.66964 12.7017C4.23884 13.2281 0 17.7797 0 23.3242C0 29.2152 4.79464 33.9933 10.7143 34H14.0625L14.9464 32.1607C13.192 31.6076 12.0469 30.2281 12.3281 28.9087C12.6362 27.4692 14.5246 26.6495 16.5536 27.076C18.0871 27.4026 19.2589 28.3489 19.6004 29.4151C19.7563 29.1636 19.9739 28.9558 20.2329 28.8112C20.4918 28.6666 20.7835 28.5901 21.0804 28.5888H21.0938C21.0402 28.3755 21.0134 28.1556 21.0134 27.929C21.0134 26.5896 22.0045 25.4833 23.2969 25.2901V23.5974C23.2969 23.3042 23.5379 23.0643 23.8326 23.0643C24.1272 23.0643 24.3683 23.3042 24.3683 23.5974V25.3501C24.6763 25.43 24.9576 25.5633 25.2121 25.7366L26.5179 24.3105C26.7188 24.0906 27.0536 24.0772 27.2746 24.2771C27.4955 24.4771 27.5089 24.8103 27.308 25.0302L25.9687 26.4963L25.9554 26.5096C26.2528 26.9767 26.3969 27.5243 26.3677 28.0765C26.3385 28.6287 26.1374 29.1582 25.7923 29.5917C25.4473 30.0251 24.9753 30.341 24.4418 30.4957C23.9083 30.6503 23.3397 30.636 22.8147 30.4547C22.7879 30.8279 22.6406 31.1678 22.4129 31.441L23.7522 34H49.5536V33.9933C55.346 33.8467 60 29.1286 60 23.3242C60 17.4265 55.1987 12.6484 49.279 12.6484ZM18.3616 32.0008L18.0737 34H19.7076L19.3125 31.2344C19.0781 31.541 18.7567 31.8009 18.3616 32.0008ZM49.1183 3.19875C49.1183 4.04711 49.457 4.86072 50.0597 5.4606C50.6625 6.06048 51.4801 6.39749 52.3326 6.39749C53.1851 6.39749 54.0026 6.06048 54.6054 5.4606C55.2082 4.86072 55.5469 4.04711 55.5469 3.19875C55.5469 2.35039 55.2082 1.53677 54.6054 0.93689C54.0026 0.337009 53.1851 0 52.3326 0C51.4801 0 50.6625 0.337009 50.0597 0.93689C49.457 1.53677 49.1183 2.35039 49.1183 3.19875ZM44.7187 7.28381C44.7187 7.49384 44.7603 7.70182 44.8411 7.89586C44.9219 8.08991 45.0402 8.26622 45.1895 8.41474C45.3387 8.56325 45.5159 8.68106 45.7109 8.76144C45.9059 8.84181 46.1148 8.88318 46.3259 8.88318C46.5369 8.88318 46.7459 8.84181 46.9409 8.76144C47.1359 8.68106 47.3131 8.56325 47.4623 8.41474C47.6115 8.26622 47.7299 8.08991 47.8107 7.89586C47.8915 7.70182 47.933 7.49384 47.933 7.28381C47.933 7.07378 47.8915 6.8658 47.8107 6.67176C47.7299 6.47771 47.6115 6.3014 47.4623 6.15288C47.3131 6.00437 47.1359 5.88656 46.9409 5.80618C46.7459 5.72581 46.5369 5.68444 46.3259 5.68444C46.1148 5.68444 45.9059 5.72581 45.7109 5.80618C45.5159 5.88656 45.3387 6.00437 45.1895 6.15288C45.0402 6.3014 44.9219 6.47771 44.8411 6.67176C44.7603 6.8658 44.7187 7.07378 44.7187 7.28381ZM16.0312 32.3806L15.2545 34H16.9955L17.2299 32.354C16.8482 32.4073 16.4464 32.4206 16.0312 32.3806Z" fill="#E0F880"/>
</svg>
