<svg width="32" height="32" viewBox="0 0 32 32" fill="none" xmlns="http://www.w3.org/2000/svg">
<path d="M26.5669 7.16518C26.752 7.35651 26.8569 7.6148 26.8569 7.88584V27.551C26.8569 28.1154 26.4158 28.5714 25.8699 28.5714H6.12959C5.58365 28.5714 5.14258 28.1154 5.14258 27.551V1.02041C5.14258 0.455995 5.58365 0 6.12959 0H19.2291C19.4913 0 19.7442 0.108418 19.9293 0.299745L26.5669 7.16518V7.16518ZM24.5806 8.35459L18.7757 2.35332V8.35459H24.5806ZM15.9997 16.0108L17.6286 22.2927C17.6497 22.3742 17.6962 22.4461 17.7609 22.4975C17.8256 22.5488 17.9048 22.5766 17.9864 22.5765H18.9663C19.0478 22.5766 19.127 22.5489 19.1917 22.4977C19.2564 22.4465 19.3029 22.3747 19.3241 22.2934L21.618 13.4923C21.6263 13.4599 21.6304 13.4264 21.6303 13.3929C21.6303 13.2914 21.5913 13.194 21.5219 13.1223C21.4525 13.0505 21.3584 13.0102 21.2602 13.0102H20.1631C20.0793 13.0102 19.998 13.0395 19.9324 13.0934C19.8669 13.1474 19.821 13.2227 19.8022 13.3071L18.3901 19.6559L16.8553 13.3001C16.8353 13.2173 16.7891 13.1438 16.7241 13.0913C16.659 13.0388 16.5788 13.0102 16.4963 13.0102H15.5031C15.4206 13.0102 15.3404 13.0388 15.2753 13.0914C15.2102 13.144 15.1641 13.2175 15.1441 13.3004L13.6124 19.6432L12.1905 13.3068C12.1716 13.2226 12.1257 13.1475 12.0603 13.0937C11.9949 13.0399 11.9138 13.0106 11.8302 13.0105H10.7386C10.7062 13.0105 10.674 13.0149 10.6427 13.0236C10.548 13.05 10.4672 13.1142 10.4182 13.2021C10.3692 13.29 10.356 13.3944 10.3815 13.4923L12.6692 22.2934C12.6903 22.3746 12.7368 22.4463 12.8013 22.4975C12.8659 22.5487 12.945 22.5765 13.0263 22.5765H14.013C14.0945 22.5765 14.1738 22.5487 14.2384 22.4974C14.303 22.4461 14.3495 22.3741 14.3705 22.2927L15.9994 16.0108H15.9997Z" fill="#023F47"/>
</svg>
