<svg width="40" height="28" viewBox="0 0 40 28" fill="none" xmlns="http://www.w3.org/2000/svg">
<path d="M38.2523 11.1593H33.5188V6.41361C33.5188 5.67419 32.8921 5.07681 32.1163 5.07681H18.3105L13.1694 0.389635C13.104 0.331266 13.018 0.298462 12.9284 0.297729H1.78727C1.01151 0.297729 0.384766 0.895114 0.384766 1.63454V26.3654C0.384766 27.1049 1.01151 27.7022 1.78727 27.7022H32.3793C32.9491 27.7022 33.4662 27.3722 33.681 26.8667L39.554 12.9974C39.6197 12.8386 39.6548 12.6674 39.6548 12.4961C39.6548 11.7567 39.028 11.1593 38.2523 11.1593ZM30.3632 11.1593H8.01086C7.44109 11.1593 6.92392 11.4893 6.70916 11.9948L3.54039 19.4809V3.30554H11.802L17.0438 8.08462H30.3632V11.1593Z" fill="#023F47"/>
</svg>
