<svg width="32" height="32" viewBox="0 0 32 32" fill="none" xmlns="http://www.w3.org/2000/svg">
<path d="M3 28C2.73478 28 2.48043 27.8946 2.29289 27.7071C2.10536 27.5196 2 27.2652 2 27V5C2 4.73478 2.10536 4.48043 2.29289 4.29289C2.48043 4.10536 2.73478 4 3 4H29C29.2652 4 29.5196 4.10536 29.7071 4.29289C29.8946 4.48043 30 4.73478 30 5V27C30 27.2652 29.8946 27.5196 29.7071 27.7071C29.5196 27.8946 29.2652 28 29 28H3ZM12.86 20.86L10.706 18.706C10.5185 18.5185 10.2642 18.4132 9.999 18.4132C9.73384 18.4132 9.47953 18.5185 9.292 18.706L4 24.002H28.334L20.768 14.922C20.6742 14.8091 20.5566 14.7183 20.4237 14.6559C20.2908 14.5936 20.1458 14.5612 19.999 14.5612C19.8522 14.5612 19.7072 14.5936 19.5743 14.6559C19.4414 14.7183 19.3238 14.8091 19.23 14.922L14.336 20.794C14.247 20.9008 14.1367 20.9878 14.0121 21.0496C13.8875 21.1114 13.7515 21.1465 13.6126 21.1527C13.4737 21.1589 13.335 21.1361 13.2054 21.0857C13.0758 21.0353 12.9582 20.9584 12.86 20.86V20.86ZM8 12C8.00013 12.3941 8.07788 12.7843 8.22882 13.1484C8.37976 13.5124 8.60092 13.8432 8.87968 14.1217C9.15844 14.4003 9.48934 14.6213 9.85349 14.7719C10.2176 14.9226 10.6079 15.0001 11.002 15C11.3961 14.9999 11.7863 14.9221 12.1504 14.7712C12.5144 14.6202 12.8452 14.3991 13.1237 14.1203C13.4023 13.8416 13.6233 13.5107 13.7739 13.1465C13.9246 12.7824 14.0021 12.3921 14.002 11.998C14.0017 11.2021 13.6853 10.4389 13.1223 9.87627C12.5593 9.31366 11.7959 8.99773 11 8.998C10.2041 8.99827 9.44087 9.3147 8.87827 9.87768C8.31566 10.4407 7.99973 11.2041 8 12Z" fill="#023F47"/>
</svg>
