<svg width="12" height="3" viewBox="0 0 12 3" fill="none" xmlns="http://www.w3.org/2000/svg">
<path d="M1.40625 2.8125C1.77921 2.8125 2.1369 2.66434 2.40062 2.40062C2.66434 2.1369 2.8125 1.77921 2.8125 1.40625C2.8125 1.03329 2.66434 0.675604 2.40062 0.411881C2.1369 0.148158 1.77921 0 1.40625 0C1.03329 0 0.675604 0.148158 0.411881 0.411881C0.148158 0.675604 0 1.03329 0 1.40625C0 1.77921 0.148158 2.1369 0.411881 2.40062C0.675604 2.66434 1.03329 2.8125 1.40625 2.8125V2.8125ZM5.625 2.8125C5.99796 2.8125 6.35565 2.66434 6.61937 2.40062C6.88309 2.1369 7.03125 1.77921 7.03125 1.40625C7.03125 1.03329 6.88309 0.675604 6.61937 0.411881C6.35565 0.148158 5.99796 0 5.625 0C5.25204 0 4.89435 0.148158 4.63063 0.411881C4.36691 0.675604 4.21875 1.03329 4.21875 1.40625C4.21875 1.77921 4.36691 2.1369 4.63063 2.40062C4.89435 2.66434 5.25204 2.8125 5.625 2.8125V2.8125ZM9.84375 2.8125C10.2167 2.8125 10.5744 2.66434 10.8381 2.40062C11.1018 2.1369 11.25 1.77921 11.25 1.40625C11.25 1.03329 11.1018 0.675604 10.8381 0.411881C10.5744 0.148158 10.2167 0 9.84375 0C9.47079 0 9.1131 0.148158 8.84938 0.411881C8.58566 0.675604 8.4375 1.03329 8.4375 1.40625C8.4375 1.77921 8.58566 2.1369 8.84938 2.40062C9.1131 2.66434 9.47079 2.8125 9.84375 2.8125V2.8125Z" fill="black"/>
</svg>
