<svg width="38" height="38" viewBox="0 0 38 38" fill="none" xmlns="http://www.w3.org/2000/svg">
<path d="M26.125 16.5508H11.875C11.7117 16.5508 11.5781 16.6844 11.5781 16.8477V31.7656C11.5781 31.9289 11.7117 32.0625 11.875 32.0625H26.125C26.2883 32.0625 26.4219 31.9289 26.4219 31.7656V16.8477C26.4219 16.6844 26.2883 16.5508 26.125 16.5508ZM13.9531 18.9258H24.0469V23.2676H13.9531V18.9258ZM24.0469 29.6875H13.9531V25.3457H24.0469V29.6875Z" fill="#E0F880"/>
<path d="M15.7344 27.7578C15.7344 28.0728 15.8595 28.3748 16.0822 28.5975C16.3049 28.8202 16.6069 28.9453 16.9219 28.9453C17.2368 28.9453 17.5389 28.8202 17.7616 28.5975C17.9843 28.3748 18.1094 28.0728 18.1094 27.7578C18.1094 27.4429 17.9843 27.1408 17.7616 26.9181C17.5389 26.6954 17.2368 26.5703 16.9219 26.5703C16.6069 26.5703 16.3049 26.6954 16.0822 26.9181C15.8595 27.1408 15.7344 27.4429 15.7344 27.7578ZM15.7344 21.1523C15.7344 21.4673 15.8595 21.7693 16.0822 21.992C16.3049 22.2147 16.6069 22.3398 16.9219 22.3398C17.2368 22.3398 17.5389 22.2147 17.7616 21.992C17.9843 21.7693 18.1094 21.4673 18.1094 21.1523C18.1094 20.8374 17.9843 20.5354 17.7616 20.3127C17.5389 20.09 17.2368 19.9648 16.9219 19.9648C16.6069 19.9648 16.3049 20.09 16.0822 20.3127C15.8595 20.5354 15.7344 20.8374 15.7344 21.1523Z" fill="#E0F880"/>
<path d="M30.1107 13.6896C28.411 9.20312 24.0804 6.01172 19.0075 6.01172C13.9347 6.01172 9.60401 9.19941 7.90441 13.6859C4.70929 14.5283 2.35655 17.4488 2.37511 20.9148C2.39737 24.7891 5.40323 27.9396 9.18839 28.2773C9.3628 28.2922 9.51124 28.1549 9.51124 27.9805V25.7391C9.51124 25.5906 9.39991 25.4645 9.25148 25.4459C8.24952 25.3197 7.30323 24.8818 6.57589 24.1656C5.68526 23.2936 5.19542 22.1209 5.19542 20.8777C5.19542 19.8387 5.53312 18.859 6.16769 18.0426C6.78741 17.2484 7.65948 16.6732 8.62062 16.4209L10.0271 16.0498L10.5429 14.6879C10.862 13.8418 11.3073 13.0477 11.8677 12.3314C12.4206 11.6189 13.0775 10.9955 13.8122 10.476C15.3374 9.40352 17.1335 8.83574 19.0075 8.83574C20.8816 8.83574 22.6776 9.40352 24.2028 10.4797C24.9413 10.9992 25.5944 11.6227 26.1474 12.3352C26.7077 13.0514 27.153 13.8455 27.4722 14.6916L27.9843 16.0498L29.387 16.4209C31.3983 16.9553 32.8048 18.7848 32.8048 20.874C32.8048 22.1209 32.3149 23.2898 31.4243 24.1619C30.7007 24.8744 29.7581 25.316 28.7562 25.4422C28.6077 25.4607 28.5001 25.5869 28.5001 25.7354V27.9805C28.5001 28.1549 28.6523 28.2922 28.8267 28.2773C32.6007 27.9359 35.5991 24.7891 35.6251 20.9223C35.6474 17.4562 33.2983 14.5357 30.1107 13.6896Z" fill="#E0F880"/>
</svg>
