<svg width="32" height="32" viewBox="0 0 32 32" fill="none" xmlns="http://www.w3.org/2000/svg">
<path d="M23.9997 29.3333H7.99967C7.29243 29.3333 6.61415 29.0524 6.11406 28.5523C5.61396 28.0522 5.33301 27.3739 5.33301 26.6667V5.33334C5.33301 4.62609 5.61396 3.94782 6.11406 3.44772C6.61415 2.94762 7.29243 2.66667 7.99967 2.66667H17.333C17.345 2.66511 17.3571 2.66511 17.369 2.66667H17.377C17.3896 2.67061 17.4026 2.67329 17.4157 2.67467C17.533 2.68267 17.649 2.70534 17.761 2.74267H17.817C17.8416 2.7599 17.8648 2.77907 17.8863 2.8C18.0316 2.86459 18.1639 2.95494 18.277 3.06667L26.277 11.0667C26.3888 11.1797 26.4791 11.3121 26.5437 11.4573C26.5553 11.4862 26.5655 11.5155 26.5743 11.5453L26.5877 11.5827C26.625 11.6933 26.6463 11.8093 26.653 11.9267C26.6542 11.94 26.6573 11.953 26.6623 11.9653V11.9733C26.6645 11.9821 26.6658 11.991 26.6663 12V26.6667C26.6663 27.3739 26.3854 28.0522 25.8853 28.5523C25.3852 29.0524 24.7069 29.3333 23.9997 29.3333ZM19.2317 18.6667V25.3333H20.485V22.6133H22.4317V21.496H20.485V19.788H22.6663V18.6667H19.2317ZM14.2983 18.6667V25.3333H15.9063C16.2394 25.3498 16.5719 25.2913 16.8793 25.162C17.1867 25.0328 17.4611 24.8362 17.6823 24.5867C18.1422 23.9999 18.3726 23.2657 18.3303 22.5213V21.4413C18.3614 20.7048 18.1245 19.982 17.6637 19.4067C17.2303 18.9133 16.597 18.6413 15.9397 18.6667H14.2983ZM9.33301 18.6667V25.3333H10.5863V22.988H11.421C11.9783 23.0187 12.5223 22.812 12.9197 22.42C13.2982 21.9964 13.4946 21.4407 13.4663 20.8733C13.4911 20.2923 13.2948 19.7235 12.917 19.2813C12.7324 19.0767 12.5049 18.9154 12.2506 18.8091C11.9963 18.7029 11.7217 18.6542 11.4463 18.6667H9.33301ZM17.333 5.33334V12H23.9997L17.333 5.33334ZM15.9277 24.216H15.5517V19.788H16.0077C16.167 19.7786 16.3262 19.8093 16.4706 19.8773C16.615 19.9454 16.7401 20.0485 16.8343 20.1773C17.0303 20.5813 17.1143 21.0307 17.077 21.4787V22.6373C17.1063 23.064 17.0143 23.4907 16.8103 23.8653C16.7027 23.991 16.5661 24.0886 16.4123 24.1497C16.2585 24.2108 16.0922 24.2335 15.9277 24.216ZM11.4463 21.8667H10.585V19.788H11.4583C11.5656 19.7892 11.6708 19.8175 11.7641 19.8705C11.8574 19.9234 11.9357 19.9992 11.9917 20.0907C12.1357 20.3293 12.205 20.604 12.1917 20.8827C12.2084 21.142 12.1395 21.3996 11.9957 21.616C11.9303 21.6981 11.8465 21.7635 11.751 21.8071C11.6556 21.8507 11.5512 21.8711 11.4463 21.8667Z" fill="#023F47"/>
</svg>
